<svg xmlns="http://www.w3.org/2000/svg" xmlns:xlink="http://www.w3.org/1999/xlink" width="500" zoomAndPan="magnify" viewBox="0 0 375 374.999991" height="500" preserveAspectRatio="xMidYMid meet" version="1.0"><defs><g/><clipPath id="38bba5b5cc"><path d="M 49.476562 219.914062 L 150.773438 219.914062 L 150.773438 246.625 L 49.476562 246.625 Z M 49.476562 219.914062 " clip-rule="nonzero"/></clipPath><clipPath id="d8aa086015"><path d="M 49.476562 86.015625 L 150.773438 86.015625 L 150.773438 239 L 49.476562 239 Z M 49.476562 86.015625 " clip-rule="nonzero"/></clipPath><clipPath id="6b33780e65"><path d="M 56.976562 86.015625 L 143.273438 86.015625 C 147.414062 86.015625 150.773438 89.375 150.773438 93.515625 L 150.773438 231.371094 C 150.773438 235.511719 147.414062 238.871094 143.273438 238.871094 L 56.976562 238.871094 C 52.835938 238.871094 49.476562 235.511719 49.476562 231.371094 L 49.476562 93.515625 C 49.476562 89.375 52.835938 86.015625 56.976562 86.015625 Z M 56.976562 86.015625 " clip-rule="nonzero"/></clipPath><clipPath id="e89ff6e3c8"><path d="M 136.230469 118.765625 L 329.320312 118.765625 L 329.320312 159.351562 L 136.230469 159.351562 Z M 136.230469 118.765625 " clip-rule="nonzero"/></clipPath><clipPath id="8caab8162e"><path d="M 143.730469 118.765625 L 321.722656 118.765625 C 325.863281 118.765625 329.222656 122.125 329.222656 126.265625 L 329.222656 151.851562 C 329.222656 155.992188 325.863281 159.351562 321.722656 159.351562 L 143.730469 159.351562 C 139.585938 159.351562 136.230469 155.992188 136.230469 151.851562 L 136.230469 126.265625 C 136.230469 122.125 139.585938 118.765625 143.730469 118.765625 Z M 143.730469 118.765625 " clip-rule="nonzero"/></clipPath><clipPath id="dce79f1329"><path d="M 49.417969 206.582031 L 151 206.582031 L 151 286.667969 L 49.417969 286.667969 Z M 49.417969 206.582031 " clip-rule="nonzero"/></clipPath><clipPath id="0bc328193f"><path d="M 106.027344 208.878906 L 148.535156 242.011719 C 149.957031 243.121094 150.785156 244.824219 150.785156 246.625 C 150.785156 248.425781 149.957031 250.128906 148.535156 251.234375 L 106.027344 284.371094 C 102.550781 287.082031 97.675781 287.082031 94.199219 284.371094 L 51.691406 251.234375 C 50.273438 250.128906 49.441406 248.425781 49.441406 246.625 C 49.441406 244.824219 50.273438 243.121094 51.691406 242.011719 L 94.199219 208.878906 C 97.675781 206.167969 102.550781 206.167969 106.027344 208.878906 Z M 106.027344 208.878906 " clip-rule="nonzero"/></clipPath></defs><g clip-path="url(#38bba5b5cc)"><path fill="#fdfdfd" d="M 49.476562 219.914062 L 150.796875 219.914062 L 150.796875 246.625 L 49.476562 246.625 Z M 49.476562 219.914062 " fill-opacity="1" fill-rule="nonzero"/></g><g clip-path="url(#d8aa086015)"><g clip-path="url(#6b33780e65)"><path fill="#fdfdfd" d="M 49.476562 86.015625 L 150.773438 86.015625 L 150.773438 238.75 L 49.476562 238.75 Z M 49.476562 86.015625 " fill-opacity="1" fill-rule="nonzero"/></g></g><g clip-path="url(#e89ff6e3c8)"><g clip-path="url(#8caab8162e)"><path fill="#fdfdfd" d="M 136.230469 118.765625 L 329.164062 118.765625 L 329.164062 159.351562 L 136.230469 159.351562 Z M 136.230469 118.765625 " fill-opacity="1" fill-rule="nonzero"/></g></g><g clip-path="url(#dce79f1329)"><g clip-path="url(#0bc328193f)"><path fill="#fdfdfd" d="M 45.777344 204.265625 L 154.320312 204.265625 L 154.320312 288.984375 L 45.777344 288.984375 Z M 45.777344 204.265625 " fill-opacity="1" fill-rule="nonzero"/></g></g><g fill="#fdfdfd" fill-opacity="1"><g transform="translate(161.744364, 218.515973)"><g><path d="M 22.46875 -20.6875 L 33.921875 -20.6875 L 33.921875 0 L 1.765625 0 L 1.765625 -41.375 L 22.46875 -41.375 Z M 22.46875 -20.6875 "/></g></g></g><g fill="#fdfdfd" fill-opacity="1"><g transform="translate(197.26205, 218.515973)"><g><path d="M 30.4375 -20.625 L 30.4375 0.0625 L 9.75 0.0625 L 9.75 -20.625 L 1.1875 -20.625 L 1.1875 -41.375 L 38.484375 -41.375 L 38.484375 -20.625 Z M 30.4375 -20.625 "/></g></g></g><g fill="#fdfdfd" fill-opacity="1"><g transform="translate(236.975667, 218.515973)"><g><path d="M 1.65625 -41.375 L 23.171875 -41.375 C 25.421875 -41.375 27.457031 -40.957031 29.28125 -40.125 C 31.113281 -39.300781 32.640625 -38.191406 33.859375 -36.796875 C 35.085938 -35.398438 35.957031 -33.863281 36.46875 -32.1875 C 36.976562 -30.507812 37.054688 -28.789062 36.703125 -27.03125 C 36.347656 -25.28125 35.484375 -23.660156 34.109375 -22.171875 C 35.992188 -20.785156 37.269531 -19.132812 37.9375 -17.21875 C 38.613281 -15.3125 38.742188 -13.351562 38.328125 -11.34375 C 37.921875 -9.332031 37.023438 -7.46875 35.640625 -5.75 C 34.265625 -4.039062 32.460938 -2.65625 30.234375 -1.59375 C 28.003906 -0.53125 25.429688 0 22.515625 0 L 1.65625 0 L 1.65625 -13.953125 L 10.046875 -13.953125 L 10.046875 -15.71875 L 1.65625 -15.71875 L 1.65625 -25.65625 L 10.046875 -25.65625 L 10.046875 -27.421875 L 1.65625 -27.421875 Z M 1.65625 -41.375 "/></g></g></g><g fill="#fdfdfd" fill-opacity="1"><g transform="translate(276.157408, 218.515973)"><g><path d="M 22.46875 0.0625 L 1.765625 0.0625 L 1.765625 -41.375 L 22.46875 -41.375 C 25.300781 -41.375 27.96875 -40.832031 30.46875 -39.75 C 32.96875 -38.664062 35.171875 -37.175781 37.078125 -35.28125 C 38.992188 -33.394531 40.484375 -31.191406 41.546875 -28.671875 C 42.617188 -26.148438 43.15625 -23.46875 43.15625 -20.625 C 43.15625 -17.789062 42.617188 -15.117188 41.546875 -12.609375 C 40.484375 -10.109375 38.992188 -7.898438 37.078125 -5.984375 C 35.171875 -4.078125 32.96875 -2.59375 30.46875 -1.53125 C 27.96875 -0.46875 25.300781 0.0625 22.46875 0.0625 Z M 22.46875 0.0625 "/></g></g></g></svg>
